<?xml version="1.0" encoding="UTF-8"?>
<svg xmlns="http://www.w3.org/2000/svg" viewBox="30 45 235 180">
  <path fill="#64b8c0" d="M45.95,204.66c6.64-3.78,70.2-40,84.35-53.63,4.99-4.81,5.43-8.38,5.36-10.35-.16-4.71-5.46-9.21-9.27-11.49-.88-.53-1.58-.86-1.91-1.02-12.08-5.71-24.22-7.18-33.39-15.41-2.35-2.11-5.28-4.81-4.92-7.98.36-3.21,3.92-5.29,8.59-7.62,5.55-2.76,13.56-6.33,24.01-9.56-1.36,1.15-3.4,3.5-5.28,6.88-1.63,2.94-2.68,6.35-1.81,9.73,0,0,.4,1.54,1.32,2.99,7.36,11.49,41.61,11.58,54.97,25.37,4.77,4.93,7.23,14.29,4.61,21.53-1.38,3.8-3.97,6.19-5.51,7.49-14.1,11.88-69.02,41.47-73.4,43.82-15.91-.25-31.81-.5-47.72-.75Z"/>
  <path fill="#fbfbfa" d="M135.94,207.23l102.02-.96s56.6-31.66,11.83-68.44c-13.81-10.66-26.1-16-34.94-18.91-6.79-2.24-13.59-3.53-24.65-8.36-13.41-5.86-15.45-9.08-15.57-11.61-.2-4.25,4.94-7.79,7.45-9.31-2.33-.19-6.8-.2-11.48,2.17-.42.21-10.07,5.29-9.62,11.48.27,3.74,5.53,6.79,16.03,12.91,3.75,2.18,8.21,4.5,15.42,9.16,1.24.8,1.86,1.21,2.39,1.57,6.12,4.2,16.9,11.61,16.94,22.61,0,.01,0,.29,0,.6-.45,12.71-19.65,24.56-26.07,28.44-18.12,10.95-34.64,20.38-49.74,28.64Z"/>
  <path fill="#fbfbfa" d="M136.77,123.65c-.5.47-.97.83-1.63.85s-1.19-.3-1.69-.77l-2.94-2.75-5.55-5.53c-3.8-3.79-10.6-11.8-12.79-16.41-3.44-7.21-3.13-15.76.71-22.75,4.77-8.68,14.22-13.81,24.15-13.04s18.64,7.4,21.94,16.88c2.16,6.19,1.81,13.71-1.29,19.52-1.09,2.05-2.38,3.81-3.77,5.68-2.73,3.66-5.73,6.96-8.86,10.28l-5.1,5.09-3.16,2.97ZM125.91,98.26c2.82,2.53,6.3,3.74,10.05,3.51,8.01-.51,13.86-7.88,12.46-15.79-1.25-7.09-7.86-11.9-14.93-11.08s-12.32,6.89-11.98,14.03c.16,3.23,1.31,6.27,3.59,8.53l.8.8Z"/>
</svg>
